<svg xmlns="http://www.w3.org/2000/svg" width="27.019" height="24.511" viewBox="0 0 27.019 24.511">
  <g id="Group_5" data-name="Group 5" transform="translate(-0.991 -1.995)">
    <path id="Path_75" data-name="Path 75" d="M2.526,10.149A8.979,8.979,0,0,1,9.34,3.606l.634-.134a21.916,21.916,0,0,1,9.053,0l.634.134a8.979,8.979,0,0,1,6.814,6.543,16.254,16.254,0,0,1,0,8.2,8.977,8.977,0,0,1-6.814,6.543l-.634.134a21.916,21.916,0,0,1-9.053,0l-.634-.134a8.977,8.977,0,0,1-6.814-6.543A16.254,16.254,0,0,1,2.526,10.149Z" transform="translate(0 0)" fill="none" stroke="#cec9b9" stroke-width="2"/>
    <path id="Path_76" data-name="Path 76" d="M6,12.75H8.5L11,16.5,16,9l2.5,3.75H21" transform="translate(1 1.5)" fill="none" stroke="#cec9b9" stroke-linecap="round" stroke-linejoin="round" stroke-width="2"/>
  </g>
</svg>
