<svg xmlns="http://www.w3.org/2000/svg" width="24" height="24" viewBox="0 0 24 24">
  <path id="Path_10" data-name="Path 10" d="M11.04,3.459a17.311,17.311,0,0,1,7.92,0,10.169,10.169,0,0,1,7.581,7.581,17.311,17.311,0,0,1,0,7.92,10.171,10.171,0,0,1-7.581,7.581,17.311,17.311,0,0,1-7.92,0A10.169,10.169,0,0,1,3.459,18.96a17.311,17.311,0,0,1,0-7.92A10.167,10.167,0,0,1,11.04,3.459Zm2.143,14.19a.766.766,0,1,0,1.083,1.083l3.191-3.191a.766.766,0,0,0,0-1.083l-3.191-3.191a.766.766,0,0,0-1.083,1.083L15.832,15Z" transform="translate(-3 -3)" fill="#b9b5a8" fill-rule="evenodd"/>
</svg>
