<svg xmlns="http://www.w3.org/2000/svg" width="25" height="25" viewBox="0 0 25 25">
  <path id="Path_74" data-name="Path 74" d="M3.664,18.661l-.936.219Zm0-7.821-.936-.219Zm22.172,0-.936.221Zm0,7.821L24.9,18.44Zm-7.176,7.176L18.44,24.9Zm-7.821,0,.221-.936Zm0-22.172.221.936Zm7.821,0L18.44,4.6ZM12.9,15.523l.914.3a.962.962,0,0,0-.379-1.1Zm-.915,2.815-.914-.3ZM16.6,15.523l-.535-.8a.962.962,0,0,0-.379,1.1Zm.915,2.815-.914.3ZM4.6,18.44a16.158,16.158,0,0,1,0-7.38l-1.872-.44a18.081,18.081,0,0,0,0,8.259Zm20.3-7.38a16.158,16.158,0,0,1,0,7.38l1.872.44a18.081,18.081,0,0,0,0-8.259ZM18.44,24.9a16.158,16.158,0,0,1-7.38,0l-.44,1.872a18.081,18.081,0,0,0,8.259,0ZM11.06,4.6a16.158,16.158,0,0,1,7.38,0l.44-1.872a18.081,18.081,0,0,0-8.259,0Zm0,20.3A8.67,8.67,0,0,1,4.6,18.44l-1.872.44a10.587,10.587,0,0,0,7.893,7.893Zm7.819,1.872a10.587,10.587,0,0,0,7.893-7.893L24.9,18.44a8.672,8.672,0,0,1-6.46,6.46ZM18.44,4.6a8.67,8.67,0,0,1,6.46,6.46l1.872-.44A10.587,10.587,0,0,0,18.88,2.728ZM10.621,2.728a10.587,10.587,0,0,0-7.893,7.893l1.872.44A8.669,8.669,0,0,1,11.06,4.6ZM12.377,12.75a2.373,2.373,0,0,1,2.373-2.373V8.454a4.3,4.3,0,0,0-4.3,4.3Zm2.373-2.373a2.373,2.373,0,0,1,2.373,2.373h1.923a4.3,4.3,0,0,0-4.3-4.3Zm-1.317,4.346a2.369,2.369,0,0,1-1.056-1.973H10.454a4.291,4.291,0,0,0,1.91,3.572Zm-1.449.5-.915,2.815,1.828.595.915-2.815Zm1.267,5.821h3V19.123h-3Zm3.872-8.3a2.369,2.369,0,0,1-1.056,1.973l1.069,1.6a4.291,4.291,0,0,0,1.91-3.572Zm1.308,5.291-.915-2.815-1.828.595.915,2.815Zm-2.182,3.005a2.3,2.3,0,0,0,2.182-3.005l-1.828.595a.372.372,0,0,1-.354.487Zm-5.18-3.005a2.3,2.3,0,0,0,2.182,3.005V19.123a.372.372,0,0,1-.354-.487Z" transform="translate(-2.25 -2.25)" fill="#cec9b9"/>
</svg>
