<svg xmlns="http://www.w3.org/2000/svg" width="27.014" height="27.014" viewBox="0 0 27.014 27.014">
  <g id="Group_4" data-name="Group 4" transform="translate(-1.993 -1.993)">
    <path id="Path_72" data-name="Path 72" d="M3.49,11.264A10.43,10.43,0,0,1,11.264,3.49a18.532,18.532,0,0,1,8.472,0,10.43,10.43,0,0,1,7.773,7.773,18.532,18.532,0,0,1,0,8.472,10.43,10.43,0,0,1-7.773,7.773,18.532,18.532,0,0,1-8.472,0A10.43,10.43,0,0,1,3.49,19.736,18.532,18.532,0,0,1,3.49,11.264Z" transform="translate(0 0)" fill="none" stroke="#363853" stroke-width="2"/>
    <path id="Path_73" data-name="Path 73" d="M10.542,12.107a2.809,2.809,0,0,1,1.565-1.565L14.971,9.4A1.405,1.405,0,0,1,16.8,11.224l-1.147,2.862a2.809,2.809,0,0,1-1.565,1.565L11.224,16.8A1.4,1.4,0,0,1,9.4,14.971Z" transform="translate(2.403 2.403)" fill="none" stroke="#363853" stroke-linecap="round" stroke-linejoin="round" stroke-width="2"/>
  </g>
</svg>
