<svg xmlns="http://www.w3.org/2000/svg" width="25" height="25" viewBox="0 0 25 25">
  <path id="Path_77" data-name="Path 77" d="M3.617,17.034l.936-.219Zm0-7,.936.219Zm19.837,0,.937-.219Zm0,7,.937.219Zm-6.421,6.421-.219-.936Zm-7,0-.219.937Zm0-19.837-.219-.936Zm7,0,.219-.936Zm8.576,23.352a.961.961,0,0,0,1.359-1.359ZM4.553,16.814a14.343,14.343,0,0,1,0-6.558L2.681,9.818a16.255,16.255,0,0,0,0,7.435Zm17.966-6.558a14.343,14.343,0,0,1,0,6.558l1.873.438a16.29,16.29,0,0,0,0-7.435Zm-5.7,12.262a14.343,14.343,0,0,1-6.558,0l-.438,1.873a16.29,16.29,0,0,0,7.435,0ZM10.257,4.553a14.343,14.343,0,0,1,6.558,0l.438-1.872a16.255,16.255,0,0,0-7.435,0Zm0,17.966a7.655,7.655,0,0,1-5.7-5.7l-1.872.438a9.577,9.577,0,0,0,7.137,7.139Zm7,1.873a9.578,9.578,0,0,0,7.139-7.139l-1.873-.438a7.653,7.653,0,0,1-5.7,5.7ZM16.814,4.553a7.655,7.655,0,0,1,5.7,5.7l1.873-.438a9.577,9.577,0,0,0-7.139-7.137Zm-7-1.872A9.575,9.575,0,0,0,2.681,9.818l1.872.438a7.657,7.657,0,0,1,5.7-5.7ZM20.91,22.269l4.7,4.7,1.359-1.359-4.7-4.7Z" transform="translate(-2.25 -2.25)" fill="#cec9b9"/>
</svg>
